<svg width="80" height="80" viewBox="0 0 80 80" fill="none" xmlns="http://www.w3.org/2000/svg">
<path d="M77.1189 48.1455C76.8105 47.5703 76.0946 47.3538 75.5192 47.6622L68.9567 51.1785C67.7959 51.7843 66.8024 53.1192 66.5754 54.549C66.3657 55.5129 65.6485 56.288 64.7035 56.5716L61.2495 57.6078L48.5516 30.812C49.3212 30.1635 49.8915 29.3085 50.1952 28.3238C50.6128 26.9693 50.4779 25.5331 49.8153 24.2801C48.4477 21.6933 45.2306 20.7015 42.6438 22.0691L37.4546 24.8126C37.615 22.4072 36.3312 20.0289 34.0312 18.9162L24.4284 14.2714C24.6735 13.2545 24.6248 12.1875 24.2727 11.176C23.7884 9.78445 22.7913 8.66469 21.4649 8.02295C17.343 6.02922 12.3166 7.00198 9.24136 10.3888C8.80272 10.8721 8.83864 11.6195 9.32187 12.0582C9.8051 12.4971 10.5526 12.4609 10.991 11.9777C13.3669 9.36141 17.2505 8.60986 20.4357 10.1506C22.0006 10.9075 22.6579 12.7962 21.9015 14.361C21.9013 14.3612 21.9011 14.3613 21.9011 14.3615L13.831 31.0412C13.4614 31.7803 12.8312 32.3368 12.0492 32.6091C11.2537 32.8857 10.3983 32.8363 9.64014 32.4695C5.65251 30.5407 3.97751 25.7273 5.90634 21.7395L8.35967 16.6675C8.6439 16.08 8.39796 15.3733 7.81042 15.0891C7.22289 14.8049 6.51624 15.0508 6.23216 15.6384L3.77883 20.7103C1.28248 25.8711 3.45032 32.1006 8.61113 34.597C9.52812 34.9917 10.5719 35.2866 11.877 35.08C10.7153 37.2317 10.3843 40.106 11.127 42.5431L12.3243 46.5662C12.5105 47.1915 13.1686 47.5476 13.794 47.3617C14.4195 47.1755 14.7757 46.5176 14.5895 45.892L13.3922 41.8691C12.9667 40.4388 12.9788 38.9309 13.4141 37.5244L23.6021 41.8371L25.9836 52.2476C26.34 53.8056 26.0975 55.4268 25.3009 56.8122L18.1925 69.1734L11.2627 65.6001L16.1996 56.9633C16.9036 55.7318 17.0753 54.2454 16.6707 52.8858L16.153 51.1458C15.9669 50.5202 15.3089 50.1642 14.6833 50.3501C14.0577 50.5363 13.7017 51.1941 13.8877 51.8196L14.4055 53.5599C14.6268 54.3037 14.5329 55.1167 14.1479 55.7904L5.1176 70.9267C4.31784 72.4843 5.06576 74.7451 6.73414 75.5776L14.8192 79.6462C15.2787 79.8818 15.7775 79.9992 16.2757 79.9992C16.8199 79.9992 17.3635 79.8591 17.8541 79.5802C18.7966 79.0445 19.3986 78.0787 19.4645 76.9956L19.8174 71.089L27.3498 57.9902C28.3924 56.2322 28.779 53.7674 28.277 51.6742L34.5726 53.1133C35.4711 53.3188 36.2603 53.8885 36.7382 54.6768L44.3386 68.3402C44.6504 69.1149 45.2102 69.7289 45.8955 70.1178L37.869 77.9738C37.4026 78.4302 37.3946 79.1784 37.851 79.6448C38.0825 79.8813 38.3889 80 38.6955 80C38.9936 80 39.2922 79.8878 39.5221 79.6628L48.5941 70.7835C48.8779 70.5057 49.2319 70.3087 49.6178 70.2136L55.3693 68.8029C57.3832 68.3304 59.0868 66.4183 59.2231 64.2428L59.3777 62.1307C59.4445 61.2172 60.079 60.4265 60.9564 60.1633L65.383 58.8352C67.1511 58.3049 68.4932 56.8547 68.8852 55.0508C68.961 54.4698 69.3361 53.6805 70.0735 53.2616L76.6359 49.7452C77.2107 49.4369 77.427 48.7206 77.1189 48.1455ZM16.6857 77.5257C16.5681 77.5928 16.2558 77.728 15.8961 77.5425C15.8927 77.5406 15.8892 77.5391 15.8857 77.5373L7.80664 73.4717C7.29584 73.2083 7.04327 72.6215 7.18949 72.0732L10.0388 67.628L17.4287 71.4384L17.1051 76.8532C17.0802 77.2591 16.8035 77.4587 16.6857 77.5257ZM43.7483 24.1583C45.183 23.4001 46.9673 23.9498 47.7258 25.3846C48.0934 26.0796 48.1681 26.876 47.9365 27.6272C47.7049 28.3785 47.1945 28.9945 46.4995 29.3621L35.5606 35.1453C33.3895 36.3594 30.114 35.5329 28.894 33.0899L27.3485 30.1668L32.4854 27.2887C32.9116 28.3933 34.4301 29.0886 35.6148 28.4584L43.7483 24.1583ZM14.3664 35.3611L20.6519 22.3716C20.7478 22.6736 20.8702 22.9697 21.0215 23.2558L26.8048 34.1947C27.4357 35.3881 28.3545 36.3317 29.4293 36.9915L27.7637 40.435L14.3664 35.3611ZM27.2028 18.2387C27.6596 18.5059 28.0497 18.8989 28.3147 19.4L31.3804 25.1987L26.2437 28.0768L23.1109 22.151C22.7434 21.456 22.6686 20.6594 22.9002 19.9083C23.1318 19.1571 23.6422 18.541 24.3371 18.1736C25.0123 17.8138 26.2471 17.6512 27.2028 18.2387ZM34.7347 26.0228L34.6176 26.265L31.4638 20.2995L33.002 21.0435C34.8524 21.9388 35.6298 24.1723 34.7347 26.0228ZM35.099 50.8094L27.6915 49.1161L26.1823 42.5188L39.1841 45.2389C40.8434 45.5862 42.2765 46.5528 43.2198 47.9609L50.4962 58.8218L43.1119 60.6329L38.7589 53.4516C37.9516 52.1196 36.6175 51.1565 35.099 50.8094ZM44.2561 62.786L51.9522 60.8983L55.2646 65.1938C55.5125 65.516 55.435 65.8484 55.3901 65.9764C55.3453 66.1041 55.1988 66.4112 54.8057 66.5076L49.0558 67.9178C49.0547 67.9181 49.0536 67.9184 49.0523 67.9187L47.9508 68.1889C47.3571 68.3347 46.7434 68.0126 46.5233 67.4396C46.5109 67.4075 46.4972 67.3759 46.4821 67.3449L44.2561 62.786ZM57.0203 61.9582L56.9105 63.4578L53.3784 58.8774L45.1835 46.6454C43.8943 44.721 41.9357 43.3999 39.6683 42.9256L30.1479 40.934L31.621 37.8882C33.1078 38.25 35.0449 38.0967 36.6654 37.235L46.5129 32.0286L59.0487 58.4823C57.8971 59.2568 57.1245 60.5348 57.0203 61.9582Z" fill="#00C4E3"/>
<path d="M32.0752 15.0334C32.0754 15.0334 32.0754 15.0334 32.0752 15.0334C33.0708 15.5149 34.1241 15.7427 35.1623 15.7427C37.8074 15.7427 40.3522 14.2624 41.5791 11.7261L42.5316 9.75723C43.2644 8.24216 43.3633 6.53234 42.8103 4.94274C42.2571 3.35329 41.1181 2.07424 39.6032 1.3416L38.136 0.631955C36.6211 -0.100689 34.9114 -0.19995 33.3217 0.353235C31.7322 0.906421 30.4532 2.04525 29.7204 3.56033L28.7681 5.52917C27.0595 9.0613 28.5433 13.325 32.0752 15.0334ZM30.8956 6.55834L31.8479 4.58949C32.527 3.18581 33.9349 2.36698 35.3986 2.36698C35.9729 2.36698 36.5562 2.49319 37.1069 2.75962L38.5739 3.46926C39.5206 3.92712 40.2325 4.72641 40.5782 5.7195C40.9238 6.7129 40.8619 7.7813 40.4041 8.72822L39.4518 10.6971C38.3108 13.0559 35.4632 14.0471 33.1044 12.9059C30.7455 11.7647 29.7546 8.91729 30.8956 6.55834Z" fill="#00C4E3"/>
</svg>
