<svg width="80" height="80" viewBox="0 0 80 80" fill="none" xmlns="http://www.w3.org/2000/svg">
<path fill-rule="evenodd" clip-rule="evenodd" d="M63.6814 53.9211H66.5387V51.7716C66.5387 50.9827 65.8991 50.3411 65.1101 50.3411C64.3211 50.3411 63.6814 50.9825 63.6814 51.7716V53.9211ZM61.4989 55.0124V51.7716C61.4989 49.7798 63.1183 48.1585 65.1101 48.1585C67.1029 48.1585 68.7222 49.7798 68.7222 51.7716V55.0124C68.7222 55.6144 68.2347 56.1036 67.6309 56.1036H62.5901C61.9874 56.1036 61.4989 55.6142 61.4989 55.0124ZM57.176 51.7716C57.176 50.9827 56.5363 50.3411 55.7474 50.3411C54.9594 50.3411 54.3187 50.9825 54.3187 51.7716V53.9211H57.176V51.7716ZM59.3595 51.7716V55.0124C59.3595 55.6144 58.8701 56.1036 58.2682 56.1036H53.2274C52.6237 56.1036 52.136 55.6142 52.136 55.0124V51.7716C52.136 49.7798 53.7555 48.1585 55.7472 48.1585C57.7392 48.1585 59.3595 49.7798 59.3595 51.7716ZM63.6814 42.866H66.5387V40.7168C66.5387 39.9278 65.8991 39.2881 65.1101 39.2881C64.3211 39.2881 63.6814 39.9278 63.6814 40.7168V42.866ZM61.4989 43.9574V40.7168C61.4989 38.7249 63.1183 37.1046 65.1101 37.1046C67.1029 37.1046 68.7222 38.7249 68.7222 40.7168V43.9576C68.7222 44.5603 68.2347 45.0488 67.6309 45.0488H62.5901C61.9874 45.0488 61.4989 44.5601 61.4989 43.9574ZM57.176 40.7168C57.176 39.9278 56.5363 39.2881 55.7474 39.2881C54.9594 39.2881 54.3187 39.9278 54.3187 40.7168V42.8662H57.176V40.7168ZM59.3595 40.7168V43.9576C59.3595 44.5603 58.8701 45.0488 58.2682 45.0488H53.2274C52.6237 45.0488 52.136 44.5603 52.136 43.9576V40.7168C52.136 38.7249 53.7555 37.1046 55.7472 37.1046C57.7392 37.1044 59.3595 38.7249 59.3595 40.7168ZM73.0221 36.4897V72.2852C73.0221 73.1406 72.3263 73.8347 71.4709 73.8347H68.3629V64.4489C68.3629 63.271 67.4034 62.3115 66.2264 62.3115H54.6312C53.4543 62.3115 52.4957 63.271 52.4957 64.4489V73.8347H47.8355V36.4897L60.4288 23.9969L73.0221 36.4897ZM55.1935 73.8345H66.1792V64.4939H54.6781V73.8345H55.1935ZM7.08769 73.8345H33.2098C31.4685 72.8763 30.1445 71.3254 29.4363 69.4464H12.4594C9.81041 69.4464 7.59457 71.335 7.08769 73.8345ZM13.265 59.5435V67.2638H28.9378C28.853 66.3107 28.9351 65.343 29.1895 64.3936C29.7747 62.2128 30.9472 60.5593 32.6136 59.5435H13.265ZM10.733 57.3609H40.2323C40.7375 56.2448 41.3615 55.2843 42.0869 54.5017H10.733C9.94593 54.5017 9.30433 55.1432 9.30433 55.9304C9.30433 56.7193 9.94577 57.3609 10.733 57.3609ZM15.0493 52.3192H18.6947C19.9391 43.1896 23.1253 34.1587 28.1856 25.4182C26.9733 25.7864 25.6744 25.5982 24.6232 24.9278C19.4043 33.2822 16.1885 42.4844 15.0493 52.3192ZM13.8115 17.6582H24.5503C25.236 17.2038 26.0563 16.9374 26.9375 16.9374C27.0139 16.9374 27.0877 16.9403 27.1624 16.9438L26.2627 16.0441C24.7042 15.0948 22.9114 14.586 21.0487 14.586C18.2707 14.5862 15.6853 15.707 13.8115 17.6582ZM27.6234 14.3188C27.7459 14.3953 27.864 14.4764 27.9829 14.5585C28.2466 13.9318 28.652 13.3796 29.1599 12.9427C27.7426 8.83115 23.8203 6.07931 19.4746 6.16811L27.6234 14.3188ZM32.8301 11.9796C33.7048 12.1556 34.4845 12.5934 35.0847 13.211L42.1274 6.16811C38.1586 6.08843 34.5195 8.37083 32.8301 11.9796ZM40.553 14.5862C39.0579 14.5862 37.5943 14.9161 36.2587 15.5475C36.3698 16.2672 36.3077 16.9796 36.0688 17.6582H47.791C45.9165 15.707 43.3311 14.5862 40.553 14.5862ZM35.5703 21.2696C35.5703 20.5958 35.2514 19.9708 34.7352 19.5699C33.82 20.3252 32.6352 20.6848 31.4069 20.522C30.8863 21.9193 31.9213 23.4208 33.4208 23.4208C34.6053 23.4208 35.5703 22.4558 35.5703 21.2696ZM31.9802 14.0801C30.7939 14.0801 29.8307 15.0433 29.8307 16.2296C29.8307 17.4131 30.7939 18.378 31.9802 18.378C33.1645 18.378 34.1296 17.4129 34.1296 16.2296C34.1296 15.0433 33.1647 14.0801 31.9802 14.0801ZM26.9376 23.4208C28.1239 23.4208 29.0888 22.4558 29.0888 21.2696C29.0888 20.0852 28.1239 19.1201 26.9376 19.1201C25.7541 19.1201 24.7891 20.0852 24.7891 21.2696C24.789 22.4558 25.7541 23.4208 26.9376 23.4208ZM32.0199 52.3192H45.5792C45.604 52.3118 45.629 52.3062 45.653 52.2979V43.608H32.0199V52.3192ZM29.4888 41.4254C28.7008 41.4254 28.0584 40.7848 28.0584 39.9958C28.0584 39.2078 28.7008 38.5672 29.4888 38.5672H45.6528V41.4254H29.4888ZM45.6528 73.8345H40.541L35.6384 72.476C32.3581 71.5822 30.4258 68.2144 31.2981 64.9585C32.4413 60.6916 36.1525 59.9052 40.1935 60.9868C40.7757 61.1427 41.3731 60.7968 41.529 60.2145C42.0037 58.444 43.141 55.583 45.6527 54.5902L45.6528 73.8345ZM75.2047 36.0353V72.2852C75.2047 74.3443 73.5299 76.0182 71.4709 76.0182C49.6091 76.0182 27.7483 76.0182 5.88673 76.0182C5.28401 76.0182 4.79553 75.5305 4.79553 74.9259C4.79553 71.1708 7.51169 68.0408 11.0824 67.39V59.5435H10.7331C8.74129 59.5435 7.12193 57.9222 7.12193 55.9304C7.12193 53.9395 8.74129 52.3192 10.7331 52.3192H12.8522C14.0256 41.8651 17.4682 32.0996 23.0933 23.2622C22.5435 22.2083 22.4533 20.9723 22.8491 19.8408H11.5867C10.7335 19.8408 10.2083 18.8976 10.6603 18.1715C13.2339 14.0393 17.9418 11.8529 22.7403 12.5214L16.3575 6.13851C15.7547 5.53483 16.0531 4.49675 16.8829 4.30331C21.0306 3.34203 25.3027 4.56411 28.3093 7.57083C29.3546 8.61515 30.197 9.83819 30.8016 11.1692C31.4072 9.83643 32.2515 8.61243 33.293 7.57083C36.2995 4.56427 40.5707 3.34299 44.7176 4.30331C45.5498 4.49675 45.8483 5.53403 45.2431 6.13851L38.8639 12.5195C43.6586 11.8515 48.3699 14.044 50.9419 18.1713C51.3923 18.894 50.8731 19.8406 50.0147 19.8406H37.5063C38.4959 22.666 36.3885 25.6032 33.4213 25.6032C32.5429 25.6032 31.7245 25.3396 31.0424 24.8889C25.62 33.7908 22.2133 43.007 20.9 52.319H29.837V43.608H29.4895C27.4976 43.608 25.8763 41.9886 25.8763 39.9958C25.8763 38.004 27.4976 36.3846 29.4895 36.3846H45.6528C45.6528 35.9595 45.6211 35.6123 45.9763 35.2601L59.66 21.6843C60.0858 21.2622 60.7725 21.2622 61.1975 21.6843L74.8811 35.2601C75.0885 35.4648 75.2047 35.744 75.2047 36.0353ZM17.2163 64.5843C16.6127 64.5843 16.1251 64.0958 16.1251 63.4929C16.1251 62.891 16.6127 62.4017 17.2163 62.4017H22.2571C22.8591 62.4017 23.3485 62.8912 23.3485 63.4929C23.3485 64.0958 22.8591 64.5843 22.2571 64.5843H17.2163ZM42.1043 47.5595C42.1043 48.1614 41.6149 48.6508 41.0122 48.6508H35.9704C35.3685 48.6508 34.8792 48.1614 34.8792 47.5595C34.8792 46.9548 35.3687 46.4673 35.9704 46.4673H41.0122C41.6149 46.4672 42.1043 46.9548 42.1043 47.5595Z" fill="#0CC0DF"/>
</svg>
