<svg width="80" height="80" viewBox="0 0 80 80" fill="none" xmlns="http://www.w3.org/2000/svg">
<g clip-path="url(#clip0_1_134)">
<path d="M0.757655 2.26802C0.870936 2.31084 12.2459 6.57537 26.1236 8.60349C26.1811 8.61193 26.2381 8.61599 26.2945 8.61599C26.8667 8.61599 27.3675 8.19631 27.4527 7.61349C27.5463 6.97302 27.103 6.37802 26.4625 6.28443C12.848 4.2949 1.6975 0.117712 1.5864 0.0758373C0.981249 -0.152756 0.304842 0.1524 0.0759362 0.757712C-0.152814 1.36287 0.152342 2.03912 0.757655 2.26802Z" fill="#0CC0DF"/>
<path d="M72.5805 56.9274C71.4839 54.4402 69.743 52.9105 67.5774 52.5105V40.1288C74.5216 38.3453 79.1863 36.5933 79.2425 36.572C79.8479 36.3431 80.1528 35.6669 79.9239 35.0616C79.6953 34.4563 79.0193 34.1511 78.4135 34.3797C78.3507 34.4034 72.3893 36.6408 63.9158 38.6122C64.2021 37.4469 64.3532 36.2455 64.3532 35.0325V32.2336C64.3532 23.9472 57.6119 17.2059 49.3257 17.2059H46.2849C45.5068 14.4266 43.6935 12.6924 41.1719 12.2895V9.66939C60.2027 9.38595 79.0503 2.34079 79.2425 2.26814C79.8479 2.03923 80.1528 1.36298 79.9239 0.757667C79.695 0.152199 79.0193 -0.152645 78.4135 0.0757924C78.2214 0.148605 58.9828 7.33548 40 7.33548C37.383 7.33548 34.613 7.19814 31.7668 6.92735C31.1224 6.86595 30.5505 7.3386 30.4891 7.98298C30.4277 8.62735 30.9003 9.19923 31.5447 9.26064C34.0443 9.49845 36.488 9.63517 38.8282 9.6697V12.2894C36.3064 12.6924 34.4924 14.4266 33.7133 17.2058H30.6744C22.3882 17.2058 15.6468 23.9472 15.6468 32.2334V35.0324C15.6468 36.2652 15.7971 37.4634 16.0783 38.6108C7.60753 36.6394 1.64988 34.4034 1.58644 34.3795C0.981284 34.1513 0.304878 34.4561 0.0759717 35.0614C-0.152778 35.6667 0.152222 36.343 0.757534 36.5719C0.814253 36.5933 5.478 38.345 12.4225 40.1286V52.5103C10.2563 52.9102 8.51582 54.4397 7.4191 56.9274C3.23425 57.5036 3.41749e-05 61.1009 3.41749e-05 65.4416V66.9416C3.41749e-05 71.6819 3.8566 75.5385 8.59691 75.5385H10.136V78.8281C10.136 79.4753 10.6607 80 11.3078 80C11.955 80 12.4797 79.4753 12.4797 78.8281V75.5385H14.7088V78.8281C14.7088 79.4753 15.2335 80 15.8807 80C16.5278 80 17.0525 79.4753 17.0525 78.8281V75.5385H18.5918C23.3321 75.5385 27.1886 71.6819 27.1886 66.9416V65.4416C27.1886 61.1008 23.9543 57.5034 19.7693 56.9274C18.6721 54.4417 16.9289 52.9116 14.7661 52.5108V40.7095C15.4857 40.8814 16.2241 41.0517 16.9797 41.2191C19.2236 46.1667 24.0727 49.6906 29.7655 50.0319V52.715C29.7655 53.8358 30.6774 54.7477 31.7982 54.7477H32.7921V78.7478C32.7921 79.395 33.3168 79.9197 33.9639 79.9197C34.6111 79.9197 35.1358 79.395 35.1358 78.7478V54.7478H38.8282V78.748C38.8282 79.3952 39.3528 79.9199 40 79.9199C40.6474 79.9199 41.1719 79.3952 41.1719 78.748V54.7478H44.8641V78.748C44.8641 79.3952 45.3886 79.9199 46.036 79.9199C46.6833 79.9199 47.2078 79.3952 47.2078 78.748V54.7478H48.2018C49.3225 54.7478 50.2344 53.836 50.2344 52.7152V50.0324C52.42 49.8997 54.5622 49.2909 56.4796 48.2514C57.0486 47.9428 57.2596 47.2316 56.9511 46.6627C56.6425 46.0938 55.9314 45.8827 55.3624 46.1911C53.7041 47.0903 51.8452 47.6061 49.9511 47.6997C50.873 47.0402 51.7485 46.25 52.5594 45.3356C55.0086 42.5739 56.4708 39.0753 56.4708 35.977V31.2895C56.4708 28.1913 55.0086 24.6927 52.5594 21.9309C51.7478 21.0159 50.8721 20.2255 49.9496 19.5658C56.6547 19.8922 62.0096 25.4491 62.0096 32.2339V35.0328C62.0096 37.9725 60.9811 40.8378 59.1138 43.1005C58.7018 43.5997 58.7724 44.3383 59.2718 44.7503C59.7703 45.1619 60.5093 45.0917 60.9214 44.5924C61.7719 43.5619 62.4738 42.4255 63.0178 41.2199C63.7743 41.0524 64.5135 40.8819 65.2338 40.7099V52.5109C63.0682 52.9109 61.3274 54.4405 60.2308 56.9278C56.0458 57.5039 52.8114 61.1013 52.8114 65.442V66.942C52.8114 71.6824 56.6678 75.5389 61.4083 75.5389H62.9475V78.8281C62.9475 79.4753 63.4721 80 64.1194 80C64.7668 80 65.2913 79.4753 65.2913 78.8281V75.5385H67.5203V78.8281C67.5203 79.4753 68.0449 80 68.6922 80C69.3396 80 69.8641 79.4753 69.8641 78.8281V75.5385H71.4033C76.1438 75.5385 80.0002 71.6819 80.0002 66.9416V65.4416C79.9999 61.1009 76.7654 57.5034 72.5805 56.9274ZM2.3441 66.9416V65.4416C2.3441 61.9936 5.14925 59.1884 8.59722 59.1884H9.02941C7.9555 60.8441 7.35675 63.0864 7.35675 64.93L7.34472 67.4475C7.34472 69.2605 7.96597 71.523 9.05847 73.1947H8.59722C5.14925 73.1947 2.3441 70.3895 2.3441 66.9416ZM12.6149 73.1947C11.3911 73.1947 9.68847 70.2986 9.68847 67.4531L9.7005 64.9356C9.7005 62.0845 11.3961 59.1884 12.6149 59.1884H14.5744C15.7982 59.1884 17.5008 62.0845 17.5008 64.9356V67.4475C17.5008 70.2986 15.7982 73.1947 14.5744 73.1947H12.6149ZM24.845 65.4416V66.9416C24.845 70.3895 22.0399 73.1947 18.5919 73.1947H18.1307C19.2233 71.5231 19.8444 69.2605 19.8444 67.4475V64.9356C19.8444 63.1227 19.2232 60.8602 18.1307 59.1884H18.5919C22.0399 59.1884 24.845 61.9936 24.845 65.4416ZM17.0828 56.8447H10.1097C10.8333 55.7106 11.9358 54.7478 13.5946 54.7478C15.0383 54.7478 16.2063 55.4541 17.0828 56.8447ZM40 14.542C41.8593 14.542 43.138 15.4391 43.8183 17.2058H36.1803C36.8614 15.4392 38.1407 14.542 40 14.542ZM41.1221 47.7166H38.8782C38.4849 47.7166 37.5377 46.7574 36.6702 44.1836C35.8478 41.7442 35.3571 38.6763 35.3571 35.9803L35.3708 31.2894C35.3708 28.587 35.8593 25.5184 36.6775 23.0813C37.6453 20.1984 38.6149 19.5497 38.8782 19.5497H41.1221C41.5153 19.5497 42.4624 20.5089 43.33 23.0827C44.1524 25.522 44.6432 28.59 44.6432 31.2894V35.9769C44.6432 38.6763 44.1522 41.7444 43.33 44.1836C42.4624 46.7574 41.5152 47.7166 41.1221 47.7166ZM35.6166 19.6733C35.1941 20.4044 34.8055 21.2936 34.4557 22.3355C33.5611 25 33.0271 28.3474 33.0271 31.2861L33.0133 35.977C33.0133 38.9172 33.5502 42.265 34.4493 44.9324C34.8002 45.9734 35.1897 46.862 35.613 47.5928C33.2988 47.2034 31.0613 45.8858 29.1944 43.7805C27.1458 41.4705 25.8732 38.4803 25.8732 35.9861L25.9096 31.2894C25.9096 28.7828 27.1758 25.7919 29.2141 23.4841C31.0732 21.3792 33.305 20.062 35.6166 19.6733ZM17.9905 35.0325V32.2336C17.9905 25.4478 23.3469 19.8903 30.0536 19.5653C26.1586 22.3397 23.5657 27.0977 23.5657 31.2802L23.5293 35.9769C23.5293 39.0752 24.9914 42.5738 27.4408 45.3355C28.2522 46.2505 29.1282 47.0409 30.0507 47.7006C23.3453 47.3742 17.9905 41.8174 17.9905 35.0325ZM47.8907 52.4041H32.1094V50.0603H47.8907V52.4041ZM50.8058 23.4858C52.8544 25.7958 54.1271 28.7859 54.1271 31.2894V35.9769C54.1271 38.4802 52.8546 41.4705 50.8058 43.7805C48.9388 45.8856 46.7014 47.2033 44.3872 47.5927C44.8103 46.8619 45.2 45.9734 45.551 44.9324C46.4502 42.265 46.9869 38.9172 46.9869 35.977V31.2895C46.9869 28.3494 46.45 25.0016 45.551 22.3342C45.2 21.2931 44.8105 20.4045 44.3872 19.6739C46.7013 20.063 48.9388 21.3806 50.8058 23.4858ZM66.4055 54.7478C68.0649 54.7478 69.1672 55.712 69.8902 56.8447H62.9207C63.6438 55.712 64.7461 54.7478 66.4055 54.7478ZM55.155 66.9416V65.4416C55.155 61.9936 57.9602 59.1884 61.4082 59.1884H61.8404C60.7664 60.8441 60.1677 63.0864 60.1677 64.93L60.1557 67.4475C60.1557 69.2605 60.7769 71.523 61.8694 73.1947H61.4082C57.9602 73.1947 55.155 70.3895 55.155 66.9416ZM65.4258 73.1947C64.2019 73.1947 62.4994 70.2986 62.4994 67.4531L62.5114 64.9356C62.5114 62.0845 64.2071 59.1884 65.4258 59.1884H67.3853C68.6093 59.1884 70.3118 62.0845 70.3118 64.9356V67.4475C70.3118 70.2986 68.6093 73.1947 67.3853 73.1947H65.4258ZM77.6561 66.9416C77.6561 70.3895 74.851 73.1947 71.403 73.1947H70.9418C72.0343 71.5231 72.6555 69.2605 72.6555 67.4475V64.9356C72.6555 63.1227 72.0343 60.8602 70.9418 59.1884H71.403C74.851 59.1884 77.6561 61.9936 77.6561 65.4416V66.9416Z" fill="#0CC0DF"/>
</g>
<defs>
<clipPath id="clip0_1_134">
<rect width="80" height="80" fill="white"/>
</clipPath>
</defs>
</svg>
