<svg width="80" height="80" viewBox="0 0 80 80" fill="none" xmlns="http://www.w3.org/2000/svg">
<g clip-path="url(#clip0_1_76)">
<path d="M40 17.8125C27.7658 17.8125 17.8125 27.7658 17.8125 40C17.8125 52.2342 27.7658 62.1875 40 62.1875C52.2342 62.1875 62.1875 52.2342 62.1875 40C62.1875 27.7658 52.2342 17.8125 40 17.8125ZM40 59.0625C29.4889 59.0625 20.9375 50.5111 20.9375 40C20.9375 29.4889 29.4889 20.9375 40 20.9375C50.5111 20.9375 59.0625 29.4889 59.0625 40C59.0625 50.5111 50.5111 59.0625 40 59.0625Z" fill="#0CC0DF"/>
<path d="M79.1705 0.1825C78.66 -0.0884373 78.0416 -0.0557811 77.5627 0.267656C69.892 5.45063 65.3125 14.0719 65.3125 23.3295V43.6033C65.3125 45.7778 66.1594 47.8222 67.6969 49.3598L70.625 52.288V75.3125C70.625 77.8972 72.7278 80 75.3125 80C77.8972 80 80 77.8972 80 75.3125V1.5625C80 0.984531 79.6809 0.45375 79.1705 0.1825ZM76.875 75.3125C76.875 76.1741 76.1741 76.875 75.3125 76.875C74.4509 76.875 73.75 76.1741 73.75 75.3125V51.6406C73.75 51.2263 73.5853 50.8289 73.2923 50.5358L69.9066 47.15C68.9592 46.2027 68.4375 44.9431 68.4375 43.6033V23.3295C68.4375 16.1452 71.5439 9.39297 76.875 4.73391V75.3125Z" fill="#0CC0DF"/>
<path d="M36.4153 27.6083C36.0766 26.8147 35.1581 26.4461 34.3647 26.7847C29.0627 29.0481 25.6367 34.2355 25.6367 40C25.6367 40.8628 26.3363 41.5625 27.1992 41.5625C28.0622 41.5625 28.7617 40.8628 28.7617 40C28.7617 35.4892 31.4427 31.43 35.5917 29.6589C36.3853 29.3202 36.7541 28.402 36.4153 27.6083Z" fill="#0CC0DF"/>
<path d="M40 25.6367L39.9211 25.6369C39.0581 25.6427 38.3633 26.3469 38.3691 27.2098C38.3748 28.0692 39.0733 28.7619 39.9314 28.7619C39.9348 28.7619 39.9386 28.7619 39.942 28.7619L40 28.7617C40.863 28.7617 41.5625 28.0622 41.5625 27.1992C41.5625 26.3363 40.863 25.6367 40 25.6367Z" fill="#0CC0DF"/>
<path d="M61.6598 19.4499C58.8992 16.5411 55.6452 14.2524 51.9881 12.6474C48.2013 10.9855 44.1678 10.1428 40 10.1428C35.2375 10.1428 30.685 11.2313 26.4691 13.3781C25.7002 13.7697 25.3941 14.7105 25.7856 15.4795C26.1773 16.2483 27.1181 16.5542 27.8872 16.1628C31.6597 14.2419 35.735 13.2678 40 13.2678C47.4056 13.2678 54.293 16.2272 59.3931 21.6011C59.7003 21.9249 60.1131 22.088 60.5267 22.088C60.913 22.088 61.2998 21.9456 61.602 21.6588C62.228 21.0647 62.2537 20.0758 61.6598 19.4499Z" fill="#0CC0DF"/>
<path d="M63.1767 56.3093C62.4997 55.7743 61.5172 55.8891 60.982 56.566C55.8737 63.0269 48.2261 66.7322 40 66.7322C34.8515 66.7322 29.8536 65.266 25.5464 62.4919C24.8211 62.0246 23.8539 62.2341 23.3867 62.9594C22.9195 63.6851 23.1289 64.6519 23.8544 65.1191C28.6672 68.2188 34.2503 69.8571 40 69.8571C49.1875 69.8571 57.7286 65.7191 63.4333 58.504C63.9684 57.8272 63.8537 56.8446 63.1767 56.3093Z" fill="#0CC0DF"/>
<path d="M21.2434 59.0506L21.2205 59.0242C21.2122 59.0141 21.2039 59.0038 21.1953 58.9938C20.6395 58.3334 19.6539 58.2491 18.9937 58.8047C18.3336 59.3606 18.2489 60.3461 18.8048 61.0064L18.82 61.0244L18.8208 61.0238C18.8373 61.0447 18.8545 61.0656 18.8723 61.0863C19.1814 61.4463 19.6186 61.6309 20.0586 61.6309C20.4189 61.6309 20.7809 61.507 21.0756 61.2541C21.7303 60.6919 21.8055 59.7055 21.2434 59.0506Z" fill="#0CC0DF"/>
<path d="M19.375 0C18.512 0 17.8125 0.699531 17.8125 1.5625V18.4375H14.9987C14.9989 18.4287 15 18.4203 15 18.4114V1.5625C15 0.699531 14.3005 0 13.4375 0C12.5745 0 11.875 0.699531 11.875 1.5625V18.4114C11.875 18.4202 11.8763 18.4287 11.8763 18.4375H9.06125C9.06141 18.4287 9.0625 18.4203 9.0625 18.4114V1.5625C9.0625 0.699531 8.36297 0 7.5 0C6.63703 0 5.9375 0.699531 5.9375 1.5625V18.4114C5.9375 18.4202 5.93875 18.4287 5.93875 18.4375H3.125V1.5625C3.125 0.699531 2.42547 0 1.5625 0C0.699531 0 0 0.699531 0 1.5625V20.625C0 24.4578 2.32563 27.917 5.78125 29.4123V75.3125C5.78125 77.8972 7.88406 80 10.4688 80C13.0534 80 15.1562 77.8972 15.1562 75.3125V29.4123C18.6119 27.917 20.9375 24.4578 20.9375 20.625V1.5625C20.9375 0.699531 20.238 0 19.375 0ZM13.16 26.8156C12.4916 27.0087 12.0312 27.6208 12.0312 28.3167V75.3125C12.0312 76.1741 11.3303 76.875 10.4688 76.875C9.60719 76.875 8.90625 76.1741 8.90625 75.3125V28.3167C8.90625 27.6208 8.44609 27.0087 7.7775 26.8156C5.34266 26.112 3.56172 24.022 3.19562 21.5625H17.7417C17.3758 24.022 15.5948 26.112 13.16 26.8156Z" fill="#0CC0DF"/>
</g>
<defs>
<clipPath id="clip0_1_76">
<rect width="80" height="80" fill="white"/>
</clipPath>
</defs>
</svg>
