<svg width="80" height="80" viewBox="0 0 80 80" fill="none" xmlns="http://www.w3.org/2000/svg">
<path d="M33.6988 69.4343H33.0419C32.4772 67.1799 31.9253 64.9564 31.3953 62.7058C30.3866 58.4222 29.3525 55.6885 23.6091 54.0593L18.0569 50.0713C17.1356 49.4097 16.0092 49.1443 14.8842 49.3249L11.1864 40.596C8.68268 34.686 5.42831 35.3757 4.49065 35.7283C2.1819 36.596 0.826588 39.6549 1.64737 42.146L6.36081 56.4524C6.41034 56.6028 6.46065 56.7569 6.51174 56.9141C7.28159 59.2771 8.23971 62.2178 10.4446 63.7333L16.8716 68.1503C17.3808 68.5003 17.7417 68.9186 17.9816 69.4338H17.8399C17.8397 69.4338 17.8396 69.4338 17.8394 69.4338C17.1341 69.4338 16.4727 69.7069 15.9771 70.203C15.4811 70.6993 15.2085 71.361 15.2091 72.0666L15.2128 75.9652C15.2142 77.4143 16.3942 78.5932 17.843 78.5932L33.7024 78.5938C34.408 78.5938 35.0696 78.3205 35.5653 77.8243C36.061 77.3282 36.3336 76.6663 36.333 75.9607L36.3292 72.0624C36.3277 70.613 35.1478 69.4343 33.6988 69.4343ZM18.1106 66.3472L11.6836 61.9302C10.0899 60.8347 9.25909 58.285 8.59174 56.2361C8.53987 56.0766 8.48893 55.9203 8.43862 55.7675L3.72518 41.4611C3.2344 39.9714 4.15909 38.1896 5.26049 37.7757C6.53299 37.2975 7.99549 38.6707 9.17237 41.4489L12.8824 50.2064C12.5821 50.4469 12.313 50.7299 12.083 51.05C10.7061 52.9671 11.1453 55.6469 13.0624 57.0241L20.6502 62.4746C21.1411 62.8269 21.8246 62.7147 22.1767 62.2243C22.5291 61.7336 22.4171 61.0502 21.9264 60.6977L14.3386 55.2474C13.4013 54.5738 13.1864 53.2635 13.8599 52.3261C14.1839 51.8749 14.6675 51.5764 15.2217 51.4855C15.7761 51.3953 16.3297 51.5232 16.781 51.8474L22.4906 55.9485C22.5961 56.0241 22.7142 56.0805 22.8392 56.1147C27.7088 57.4514 28.3603 59.3599 29.2664 63.2066C29.7578 65.2932 30.2669 67.3527 30.7871 69.4335L20.3008 69.4328C19.9546 68.1471 19.2192 67.1089 18.1106 66.3472ZM34.0177 76.2782C33.9594 76.3366 33.8574 76.4061 33.7014 76.4061L17.8435 76.405C17.5994 76.405 17.4008 76.2064 17.4006 75.9625L17.3969 72.0639C17.3967 71.9091 17.4663 71.8069 17.5246 71.7485C17.583 71.6902 17.6849 71.6207 17.8399 71.6207L32.1828 71.6214C32.1844 71.6214 32.186 71.6219 32.1875 71.6219C32.1897 71.6219 32.1917 71.6216 32.1939 71.6214L33.6989 71.6216C33.943 71.6216 34.1416 71.8202 34.1417 72.0643L34.1455 75.9625C34.1456 76.1177 34.076 76.2197 34.0177 76.2782ZM75.506 35.728C74.5685 35.3757 71.3144 34.6857 68.8103 40.5957L65.1125 49.3246C63.9866 49.1441 62.861 49.4094 61.9399 50.071L56.3877 54.0589C50.6439 55.6883 49.61 58.4219 48.6014 62.7055C48.0749 64.9414 47.5217 67.1703 46.9549 69.4339H46.298C44.8491 69.4339 43.6691 70.6129 43.6677 72.0619L43.6639 75.9605C43.6633 76.666 43.936 77.3278 44.4316 77.8239C44.9274 78.3202 45.5889 78.5935 46.2955 78.5935L62.1535 78.5924C63.6024 78.5924 64.7824 77.4135 64.7838 75.9646L64.7875 72.066C64.7882 71.3603 64.5155 70.6985 64.0196 70.2022C63.5239 69.7061 62.8625 69.433 62.1574 69.433C62.1572 69.433 62.1569 69.433 62.1569 69.433H62.015C62.255 68.9178 62.6158 68.4996 63.125 68.1496L69.5519 63.7327C71.7566 62.2175 72.7146 59.2771 73.4844 56.9146C73.5357 56.7569 73.586 56.6025 73.6358 56.4516L78.3492 42.1452C79.1702 39.6546 77.8149 36.5958 75.506 35.728ZM62.1572 71.6208C62.3121 71.6208 62.4141 71.6903 62.4725 71.7486C62.5308 71.8071 62.6003 71.9091 62.6002 72.0641L62.5964 75.9628C62.5963 76.2068 62.3977 76.4052 62.1535 76.4052L46.2946 76.4063C46.1396 76.4063 46.0374 76.3368 45.9791 76.2783C45.9208 76.2199 45.8513 76.1178 45.8514 75.9628L45.8552 72.0643C45.8553 71.8202 46.0539 71.6218 46.298 71.6218L47.803 71.6216C47.8052 71.6216 47.8072 71.6221 47.8094 71.6221C47.811 71.6221 47.8125 71.6218 47.8141 71.6216L62.1572 71.6208ZM76.2717 41.4611L71.5583 55.7675C71.508 55.9205 71.4569 56.0774 71.4047 56.2374C70.7374 58.2857 69.9067 60.8352 68.3132 61.9303L61.8863 66.3474C60.7778 67.1091 60.0424 68.1474 59.6964 69.4336L49.21 69.4343C49.7322 67.3449 50.2422 65.2811 50.7307 63.2074C51.6364 59.3607 52.288 57.4522 57.1578 56.1155C57.283 56.0811 57.4011 56.0249 57.5064 55.9493L63.2161 51.848C63.6674 51.5241 64.2211 51.3961 64.7753 51.4863C65.3296 51.5772 65.8132 51.8757 66.1372 52.3268C66.8105 53.2643 66.5958 54.5747 65.6585 55.248L58.0707 60.6985C57.58 61.051 57.4682 61.7344 57.8203 62.225C58.173 62.7155 58.8563 62.8275 59.3469 62.4753L66.9347 57.0247C68.8516 55.6478 69.2908 52.9678 67.9141 51.0508C67.6839 50.7305 67.415 50.4477 67.1147 50.2072L70.8247 41.4497C72.0017 38.6714 73.4646 37.2983 74.7366 37.7764C75.8378 38.1896 76.7625 39.9716 76.2717 41.4611ZM44.8513 47.1116C53.4274 47.1116 58.8878 43.0841 62.0978 39.3714C66.181 34.6491 67.5289 29.535 67.5842 29.3196C67.6575 29.0346 67.613 28.7321 67.4605 28.4805C67.3078 28.2288 67.0605 28.0493 66.7739 27.9822C66.3094 27.8736 55.3066 25.3877 47.0857 31.0005C44.4477 32.8016 42.411 35.2266 40.9892 38.2468L40.9894 30.1947C41.2538 29.7813 41.5282 29.36 41.8164 28.9178C44.1432 25.3494 46.7802 21.3049 47.0425 16.8455C47.3357 11.8616 44.7132 5.63957 40.6649 1.71457C40.2405 1.30347 39.5666 1.30316 39.1422 1.71457C34.9502 5.77832 32.3874 11.8663 32.7647 16.8633C33.1372 21.7933 36.5474 26.8461 38.5849 29.865C38.6596 29.9758 38.7319 30.0828 38.8019 30.1869L38.8017 37.8218C37.3921 34.9982 35.4241 32.7163 32.911 31.0003C24.6896 25.3871 13.6869 27.8733 13.2227 27.9821C12.9361 28.0491 12.6888 28.2286 12.5361 28.4803C12.3836 28.7319 12.3391 29.0344 12.4124 29.3194C12.4677 29.5347 13.8156 34.6488 17.8986 39.3713C21.1088 43.0841 26.568 47.1114 35.1452 47.1114C36.3056 47.1114 37.5244 47.0371 38.8014 46.8788L38.8013 56.1358C38.8013 56.7399 39.291 57.2296 39.895 57.2296C40.4989 57.2296 40.9888 56.7399 40.9888 56.1358L40.9889 46.8521C42.3414 47.0285 43.6283 47.1116 44.8513 47.1116ZM48.3086 32.8146C54.2585 28.7452 62.158 29.4503 65.1041 29.9011C64.5039 31.58 63.0972 34.8713 60.4432 37.941C55.923 43.1689 49.9053 45.476 42.5292 44.8216L53.8703 38.2743C54.3935 37.9722 54.5727 37.3033 54.2707 36.7802C53.9685 36.2571 53.2997 36.0777 52.7766 36.3799L41.6771 42.7877C42.8336 38.3866 45.0563 35.0391 48.3086 32.8146ZM34.9464 16.6988C34.6382 12.6189 36.6058 7.66941 39.9019 4.07097C43.0905 7.58566 45.0992 12.638 44.8592 16.7174C44.6657 20.0068 42.8619 23.2286 40.99 26.1688L40.9902 16.1824C40.9902 15.5783 40.5005 15.0886 39.8964 15.0886C39.2925 15.0886 38.8027 15.5783 38.8027 16.1824L38.8025 26.2177C37.0714 23.4752 35.1938 19.9741 34.9464 16.6988ZM19.6063 38.0014C16.9281 34.926 15.5014 31.5927 14.8942 29.8993C17.8369 29.4458 25.7163 28.7371 31.6777 32.8074C34.9664 35.053 37.2021 38.4464 38.3503 42.9133L27.0328 36.3788C26.5094 36.0764 25.8408 36.2561 25.5388 36.7791C25.2367 37.3022 25.416 37.9711 25.9391 38.2732L37.3066 44.8366C30.0342 45.441 24.0881 43.1483 19.6063 38.0014Z" fill="#00C4E3"/>
</svg>
