<svg width="80" height="80" viewBox="0 0 80 80" fill="none" xmlns="http://www.w3.org/2000/svg">
<path d="M75.938 60.25C75.3755 60.125 74.7505 60.5 74.6255 61.125L74.3755 62.5C70.7505 58.5625 60.3755 46.625 54.6255 32.6875C54.438 32.3125 54.1255 32.0625 53.6255 32H33.1255C32.938 31.75 32.7505 31.5 32.563 31.25V28.25C33.563 29.25 34.7505 30.125 36.0005 30.75C36.563 31 37.188 30.8125 37.5005 30.25C37.7505 29.6875 37.563 29 37.0005 28.75C35.188 27.8125 33.688 26.4375 32.563 24.8125V22.3125C33.313 23 34.1255 23.5625 35.0005 24C35.563 24.25 36.188 24 36.438 23.5C36.688 22.9375 36.5005 22.3125 35.938 22.0625C34.563 21.375 33.3755 20.3125 32.563 19V16.3125C33.0005 16.6875 33.5005 16.9375 34.0005 17.1875C34.563 17.4375 35.188 17.25 35.5005 16.6875C35.7505 16.125 35.563 15.5 35.0005 15.1875C33.3755 14.3125 32.7505 13.1875 32.438 12.8125C32.0005 12.1875 31.063 12.1875 30.6255 12.8125C30.438 13 29.7505 14.3125 28.063 15.1875C27.5005 15.4375 27.313 16.125 27.563 16.6875C27.813 17.1875 28.438 17.4375 29.0005 17.1875C29.5005 16.9375 30.0005 16.625 30.438 16.3125V19C29.563 20.3125 28.438 21.3125 27.063 22.0625C26.5005 22.3125 26.2505 23 26.563 23.5C26.8755 24 27.5005 24.3125 28.0005 24C28.8755 23.5625 29.688 23 30.438 22.3125V24.8125C29.313 26.5 27.813 27.875 26.0005 28.75C25.438 29 25.2505 29.6875 25.5005 30.1875C25.7505 30.6875 26.438 30.9375 26.938 30.6875C28.188 30.0625 29.3755 29.1875 30.3755 28.1875V31.1875C30.188 31.4375 30.0005 31.6875 29.813 31.9375H26.3755C25.8755 31.9375 25.5005 32.25 25.3755 32.625C24.2505 35.25 23.063 37.8125 21.688 40.3125C20.438 39.3125 19.3755 38.125 18.5005 36.8125V33.8125C19.5005 34.8125 20.688 35.6875 21.938 36.3125C22.5005 36.5625 23.1255 36.375 23.438 35.8125C23.688 35.25 23.5005 34.5625 22.938 34.3125C21.1255 33.375 19.6255 32 18.5005 30.375V27.875C19.2505 28.5625 20.063 29.125 20.938 29.5625C21.5005 29.8125 22.1255 29.625 22.438 29.0625C22.688 28.5 22.5005 27.8125 21.938 27.5625C20.563 26.875 19.3755 25.8125 18.563 24.5625V21.875C19.0005 22.25 19.5005 22.5 20.0005 22.75C20.563 23 21.188 22.75 21.438 22.25C21.688 21.6875 21.5005 21.0625 20.938 20.8125C19.313 19.9375 18.688 18.8125 18.3755 18.4375C17.938 17.8125 17.0005 17.8125 16.563 18.4375C16.3755 18.625 15.688 19.9375 14.0005 20.8125C13.438 21.125 13.2505 21.75 13.563 22.3125C13.813 22.8125 14.438 23 15.0005 22.8125C15.5005 22.5625 16.0005 22.25 16.438 21.9375V24.625C15.563 25.9375 14.438 26.9375 13.063 27.625C12.5005 27.875 12.313 28.5625 12.563 29.0625C12.813 29.5625 13.5005 29.8125 14.0005 29.5625C14.8755 29.125 15.688 28.5625 16.438 27.875V30.375C15.313 32.0625 13.813 33.4375 12.0005 34.3125C11.438 34.5625 11.2505 35.25 11.5005 35.75C11.7505 36.25 12.438 36.5 12.938 36.25C14.188 35.625 15.3755 34.75 16.3755 33.75V36.875C15.0005 38.9375 13.1255 40.625 10.938 41.75C10.3755 42 10.1255 42.625 10.438 43.1875C10.688 43.75 11.313 44 11.8755 43.6875H11.938C13.6255 42.875 15.1255 41.6875 16.438 40.3125V49C13.063 53.8125 9.50051 58.3125 5.62551 62.5L5.31301 61.0625C5.18801 60.5 4.62551 60.0625 4.00051 60.1875C3.37551 60.3125 3.00051 60.875 3.12551 61.5L4.50051 68.0625C4.62551 68.625 5.18801 69.0625 5.81301 68.9375C6.37551 68.8125 6.81301 68.25 6.68801 67.625L6.18801 65.125C9.81301 61.25 13.188 57.1875 16.2505 52.9375V54.75L11.0005 67.4375C10.688 68.1875 11.2505 68.9375 12.0005 68.9375H67.938C68.688 68.9375 69.2505 68.125 68.938 67.4375L61.8755 50.3125C65.438 55.5625 69.438 60.5 73.7505 65.0625L73.2505 67.5625C73.1255 68.125 73.5005 68.75 74.1255 68.875C74.688 69 75.313 68.625 75.438 68L76.813 61.4375C76.938 60.9375 76.563 60.375 75.938 60.25ZM33.7505 66.75L33.3755 65.0625C37.688 60.4375 41.688 55.5 45.2505 50.3125L38.438 66.75H33.7505ZM54.688 55L58.938 66.8125H54.688V55ZM56.438 53.4375L63.813 61.3125L60.813 65.5L56.438 53.4375ZM54.688 48.3125V38.625L61.8755 56.0625L54.688 48.3125ZM18.5005 40.4375C19.1255 41.125 19.8755 41.75 20.6255 42.3125C19.938 43.5 19.2505 44.6875 18.5005 45.8125V40.4375ZM27.1255 34.25H51.938C46.1255 47.4375 36.3755 58.6875 32.8755 62.5L32.563 61.0625C32.438 60.5 31.8755 60.0625 31.2505 60.1875C30.688 60.3125 30.2505 60.875 30.3755 61.5L31.5005 66.75H13.688L27.1255 34.25ZM52.5005 38.625V48.75V66.75H40.8755L52.5005 38.625ZM62.6255 66.75L64.938 63.5L66.313 66.75H62.6255Z" fill="#00C4E3"/>
<path d="M56.0002 13.0625C56.5002 12.6875 56.5627 12 56.2502 11.5625C56.0627 11.3125 55.7502 11.125 55.4377 11.125C50.9377 10.8125 47.0627 14.25 46.7502 18.75C46.4377 23.25 49.8752 27.125 54.3752 27.4375C57.3127 27.625 60.1877 26.1875 61.7502 23.6875C62.0627 23.1875 61.9377 22.5 61.4377 22.1875C61.1877 22 60.8127 22 60.5627 22.0625C57.8752 22.875 55.0002 21.4375 54.1877 18.75C53.5002 16.5625 54.2502 14.3125 56.0002 13.0625ZM58.0002 24.375C55.1877 26.0625 51.5002 25.1875 49.8127 22.375C47.9377 19.25 49.2502 15.125 52.6252 13.75C50.7502 17.3125 52.0627 21.6875 55.6252 23.625C56.3127 23.9375 57.1252 24.25 58.0002 24.375Z" fill="#00C4E3"/>
</svg>
